<?xml version="1.0" encoding="iso-8859-1"?>
<!-- Uploaded to: SVG Repo, www.svgrepo.com, Generator: SVG Repo Mixer Tools -->
<!DOCTYPE svg PUBLIC "-//W3C//DTD SVG 1.1//EN" "http://www.w3.org/Graphics/SVG/1.1/DTD/svg11.dtd">
<svg fill="#000000" height="800px" width="800px" version="1.1" id="Capa_1" xmlns="http://www.w3.org/2000/svg" xmlns:xlink="http://www.w3.org/1999/xlink" 
	 viewBox="0 0 549.408 549.408" xml:space="preserve">
<g>
	<path d="M272.488,149.104c-26.961,0-48.895,21.938-48.895,48.904c0,26.967,21.934,48.905,48.895,48.905
		c26.966,0,48.904-21.938,48.904-48.905C321.393,171.042,299.454,149.104,272.488,149.104z"/>
	<path d="M401.331,154.974c-3.519-4.305-8.504-6.979-14.033-7.534c-0.7-0.071-1.409-0.106-2.108-0.106
		c-10.719,0-19.609,8.056-20.68,18.738c-1.753,17.474-5.627,40.541-8.861,47.637c-4.079,5.869-23.966,24.684-44.934,43.396h-72.022
		c-20.965-18.711-40.852-37.524-44.933-43.396c-3.226-7.075-7.102-30.148-8.862-47.637c-1.07-10.683-9.96-18.738-20.678-18.738
		c-0.7,0-1.41,0.036-2.108,0.106c-5.531,0.555-10.517,3.23-14.035,7.534c-3.52,4.304-5.152,9.721-4.597,15.252
		c0.757,7.56,4.96,46.108,13.327,62.677c1.909,3.782,5.463,10.821,40.498,42.883c9.687,8.865,19.029,17.135,25.083,22.444v229.325
		c0,12.05,9.804,21.854,21.854,21.854c12.051,0,21.855-9.804,21.855-21.854V406.99h12.861v120.564
		c0,12.05,9.804,21.854,21.854,21.854c12.051,0,21.855-9.804,21.855-21.854l-0.069-225.462c4.99-4.343,16.963-14.828,29.505-26.308
		c35.033-32.06,38.588-39.1,40.497-42.882c8.368-16.569,12.571-55.118,13.328-62.678
		C406.483,164.694,404.851,159.277,401.331,154.974z"/>
	<path d="M175.118,112.448l-3.563,4.011c-1.972,2.218-1.741,5.653,0.514,7.659l2.317,2.059c1.013,0.899,2.313,1.396,3.66,1.396
		c1.536,0,2.996-0.651,4.006-1.788l3.874-4.36c3.513,1.786,7.107,2.69,10.701,2.69h0.001c5.764,0,11.091-2.423,14.999-6.823
		c6.711-7.554,6.934-16.396,0.729-28.665c-4.361-8.734-4.311-11.093-2.55-13.075c0.484-0.545,1.554-1.46,3.272-1.46
		c1.689,0,3.593,0.898,5.505,2.597c4.122,3.663,5.899,8.146,5.907,8.164c0.305,0.831,0.813,1.577,1.468,2.159
		c1.574,1.397,3.953,1.707,5.841,0.743l4.113-2.099c2.556-1.354,2.973-4.152,2.068-6.094c-1.406-3.035-4.529-7.234-5.943-9.071
		l3.317-3.766c1.973-2.219,1.742-5.655-0.513-7.659l-2.237-1.987c-1.013-0.899-2.313-1.396-3.659-1.396
		c-1.537,0-2.998,0.652-4.01,1.791l-3.669,4.138c-3.375-1.685-6.819-2.538-10.252-2.538c-5.517,0-10.596,2.297-14.302,6.468
		c-7.891,8.882-4.054,19.466,0.73,28.629c3.806,7.485,3.291,10.476,1.348,12.664c-1.039,1.169-2.436,1.787-4.041,1.787
		c-2.109,0-4.436-1.035-6.553-2.915c-3.039-2.7-5.866-8.344-6.698-10.287c-0.316-0.746-0.783-1.397-1.388-1.935
		c-1.618-1.438-4.058-1.733-5.976-0.714l-4.089,2.184c-2.168,1.2-3.058,3.679-2.163,6.026
		C169.448,105.082,173.505,110.416,175.118,112.448z"/>
	<path d="M258.85,38.008c4.541,9.915,14.354,11.062,21.341,11.062c1.55,0,3.243-0.063,5.154-0.189
		c0.909-0.051,1.771-0.076,2.561-0.076c6.821,0,8.631,1.897,9.57,3.949c0.717,1.565,0.648,3.239-0.198,4.842
		c-0.928,1.753-2.74,3.315-5.104,4.397c-4.206,1.928-11.229,1.983-12.017,1.983v2l0,0l-0.167-2.001c-0.789,0-1.549,0.165-2.261,0.49
		c-2.024,0.929-3.227,2.961-3.063,5.182l0.351,4.622c0.225,2.469,2.134,4.282,4.644,4.408c4.315,0.217,10.9-1.345,13.409-1.998
		l2.234,4.879c0.868,1.896,2.798,3.121,4.915,3.122c0.797,0,1.571-0.17,2.302-0.504l2.818-1.291
		c2.742-1.257,3.968-4.476,2.731-7.174l-2.43-5.304c8.027-6.587,10.618-16.37,6.58-25.186c-4.249-9.277-12.132-12.954-25.939-12.224
		c-1.588,0.077-2.94,0.114-4.136,0.114c-6.911,0-8.066-1.322-8.858-3.051c-1.002-2.188-0.325-5.327,4.58-7.574
		c4.288-1.965,8.408-2.117,9.569-2.117c0.184,0,0.277-0.004,0.282,0.003c0.887,0.055,1.777-0.111,2.567-0.474
		c1.966-0.899,3.156-2.879,3.035-5.044l-0.261-4.612c-0.207-2.825-2.551-4.35-4.743-4.35h-0.002
		c-3.372,0.064-8.461,1.229-10.697,1.781l-2.108-4.552C274.642,1.226,272.713,0,270.596,0c-0.798,0-1.571,0.17-2.301,0.504
		l-2.722,1.246c-2.741,1.256-3.967,4.475-2.729,7.179l2.308,5.026C257.512,20.313,255.031,29.672,258.85,38.008z"/>
	<path d="M330.517,115.044l-2.649,2.687c-0.873,0.885-1.34,2.063-1.315,3.316c0.024,1.233,0.524,2.394,1.408,3.265l1.708,1.685
		c0.891,0.879,2.067,1.362,3.312,1.362c1.244,0,2.405-0.483,3.27-1.36l2.929-2.97c2.873,1.588,5.934,2.422,8.915,2.422h0.001
		c4.258,0,8.294-1.715,11.363-4.827c5.642-5.721,6.198-12.703,1.809-22.632c-3.171-7.272-2.667-8.567-1.537-9.714
		c0.319-0.323,1.014-0.867,2.077-0.867c1.237,0,2.629,0.728,4.024,2.104c2.95,2.91,4.123,6.361,4.123,6.361
		c0.225,0.727,0.628,1.391,1.163,1.917c1.3,1.283,3.313,1.646,4.984,0.901l3.275-1.46c2.281-1.063,2.77-3.477,2.072-5.206
		c-0.919-2.288-2.953-5.404-4.067-7.034l2.455-2.511c1.789-1.813,1.748-4.766-0.092-6.581l-1.651-1.628
		c-0.891-0.877-2.065-1.36-3.31-1.36s-2.407,0.484-3.272,1.363l-2.764,2.807c-2.761-1.498-5.694-2.286-8.544-2.286
		c-4.134,0-7.882,1.584-10.837,4.581c-6.651,6.744-4.071,15.251-0.679,22.664c2.821,6.343,1.801,8.149,0.623,9.344
		c-0.714,0.724-1.597,1.091-2.624,1.091c-1.56,0-3.34-0.872-4.883-2.394c-2.171-2.142-4.101-6.547-4.657-8.057
		c-0.237-0.651-0.607-1.229-1.104-1.72c-1.339-1.317-3.4-1.675-5.098-0.878l-3.257,1.527c-1.931,0.941-2.814,3.045-2.147,5.117
		C326.555,109.205,329.237,113.227,330.517,115.044z"/>
</g>
</svg>